<?xml version="1.0" encoding="utf-8"?>
<!-- Svg Vector Icons : http://www.onlinewebfonts.com/icon -->
<!DOCTYPE svg PUBLIC "-//W3C//DTD SVG 1.1//EN" "http://www.w3.org/Graphics/SVG/1.1/DTD/svg11.dtd">
<svg version="1.1" xmlns="http://www.w3.org/2000/svg" xmlns:xlink="http://www.w3.org/1999/xlink" x="0px" y="0px" viewBox="0 0 1000 1000" enable-background="new 0 0 1000 1000" xml:space="preserve">
<metadata> Svg Vector Icons : http://www.onlinewebfonts.com/icon </metadata>
<g><g transform="translate(0.000000,512.000000) scale(0.100000,-0.100000)"><path d="M4765.7,4988.8c-334.8-80.3-619.8-365.4-709.7-705.9c-57.4-221.9-26.8-478.2,82.3-698.2c63.1-128.2,265.9-334.8,397.9-405.5c275.5-147.3,656.1-147.3,933.5,0c141.6,74.6,334.8,275.5,405.6,424.7C6240.5,4355.6,5574.8,5183.9,4765.7,4988.8z M5282.2,4627.2c130.1-65,250.6-185.6,311.8-315.6c42.1-88,49.8-132,49.8-277.4c0-160.7-3.8-181.7-65-292.7c-72.7-133.9-172.2-229.6-306.1-294.6c-126.3-63.1-413.2-63.1-539.5,0c-133.9,65-233.4,160.7-306.1,294.6c-61.2,110.9-65,132-65,292.7c0,145.4,7.7,187.5,49.7,277.4c82.3,170.2,241,308,415.1,357.7C4958.9,4705.7,5157.8,4688.5,5282.2,4627.2z"/><path d="M4930.2,4349.9c-51.7-21-97.6-118.6-84.2-183.7c9.6-49.7,88-122.4,130.1-122.4c15.3,0,26.8-11.5,26.8-26.8c0-15.3,21-51.7,45.9-80.4c93.7-109,279.3-38.3,279.3,107.1C5328.1,4248.5,5106.2,4418.7,4930.2,4349.9z"/><path d="M3459.1,3823.8c-778.6-241-1386.9-606.4-1958.9-1176.5c-422.8-420.8-730.7-853.2-1002.4-1406C316.2,870.2,218.6,619.6,147.8,338.4L100,143.3L515.1-1938c227.6-1143.9,432.3-2131,451.5-2194.1c101.4-308,357.7-535.6,692.5-614.1c181.7-42.1,6505.9-42.1,6687.6,0c338.6,80.4,598.8,313.7,698.2,631.3c67,212.3,855.1,4057.3,855.1,4174c0,466.7-493.5,1518.9-1025.3,2186.5c-183.7,229.6-594.9,633.2-826.4,811.1c-216.2,162.6-512.7,352-730.8,461c-338.6,170.3-958.4,386.4-1040.7,361.6c-72.7-21-126.2-86.1-126.2-153c0-99.5,63.1-153,239.1-198.9c373-101.4,822.6-306.1,1166.9-529.9c677.2-441.9,1281.7-1138.2,1681.5-1932.1C9354.8,832,9490.6,480,9540.4,282.9c36.3-143.5,38.3-177.9,19.1-269.7c-30.6-149.2-93.7-262.1-198.9-361.6c-111-103.3-229.6-160.7-369.2-174.1c-126.3-13.4-156.9,3.8-434.2,229.6c-233.4,187.5-380.7,277.4-573.9,350.1c-120.5,45.9-168.3,53.6-359.6,53.6c-168.3,1.9-244.8-5.7-325.2-34.4c-195.1-67-396-185.6-623.6-369.2c-233.4-185.6-308-235.3-361.6-235.3c-55.5,0-170.3,72.7-363.5,229.6c-350.1,285-583.4,396-881.9,415.1c-187.5,13.4-382.6-24.9-562.4-111c-139.6-65-241-135.8-487.8-332.8c-176-141.6-271.6-200.9-325.2-200.9c-53.6,0-128.2,47.8-361.5,235.3c-338.6,271.6-577.7,386.4-855.1,409.4c-350.1,26.8-614.1-78.4-1034.9-417c-216.2-174.1-285-216.2-384.5-237.2c-128.2-26.8-174.1-176-80.3-267.8c109-110.9,311.8-40.2,635.1,223.8c417,340.5,665.7,428.5,971.8,350.1c164.5-44,302.2-124.3,556.7-327.1c296.5-237.2,426.6-302.2,575.8-290.8c147.3,9.6,246.8,61.2,464.8,237.2C4582-289,4738.9-212.5,5002.9-212.5c265.9,0,392.2-61.2,795.8-380.7c246.8-197,342.4-246.8,491.6-256.3c149.2-11.5,277.4,53.6,577.7,292.7c587.3,468.7,904.8,468.7,1492.1,0c126.3-99.5,283.1-208.5,350.1-242.9c111-55.5,128.2-59.3,277.4-49.7c116.7,7.6,195.1,24.9,296.5,68.9c76.5,30.6,137.7,51.7,137.7,44c0-45.9-675.3-3240.5-700.1-3319c-23-68.9-65.1-130.1-139.7-204.7c-107.1-107.1-197-151.1-369.2-181.7c-67-11.5-72.7-7.7-72.7,30.6c0,23,103.3,765.2,229.6,1649c126.3,883.8,223.8,1616.4,218.1,1627.9c-91.8,164.5-287,135.8-319.5-45.9c-5.7-36.3-110.9-767.1-233.4-1624.1c-120.5-857-225.7-1578.2-229.6-1603c-9.6-42.1-13.4-42.1-334.8-42.1c-313.7,0-325.2,1.9-325.2,38.3c0,21,68.9,845.5,153,1832.6c84.2,985.2,149.2,1811.6,143.5,1834.5c-26.8,109-170.3,156.8-258.3,86.1c-32.5-26.8-47.8-65-57.4-149.2c-9.6-61.2-82.2-906.7-164.5-1876.6l-149.2-1765.6h-332.8h-332.9l9.6,120.5c7.7,65,44,793.9,84.2,1618.4l70.8,1497.8l-63.1,57.4c-51.6,45.9-74.6,55.5-122.4,45.9c-78.4-15.3-126.3-61.2-137.7-133.9c-5.7-32.5-40.2-686.7-76.5-1455.7c-36.3-767.1-70.8-1476.8-78.4-1574.3l-11.5-176h-323.3H5175v1880.4c0,1750.3-1.9,1882.3-34.4,1945.5c-38.3,78.4-130.1,114.8-206.6,78.4c-105.2-47.8-103.3,7.7-103.3-2029.6v-1874.7h-323.3h-323.3l-11.5,156.9c-5.7,88-42.1,809.2-80.3,1603c-44,904.8-76.5,1461.5-91.8,1492.1c-26.8,59.3-114.8,103.3-174.1,88c-82.3-21-124.3-86.1-124.3-189.4c0-122.4,128.2-2806.3,143.5-3001.4l11.5-149.2h-330.9h-332.9l-156.9,1851.7C2864.2-593.2,2877.6-677.3,2759-635.3c-63.1,23-133.9-7.6-176-72.7c-30.6-45.9-23-153,122.4-1861.3c86.1-998.6,155-1828.8,155-1847.9c0-28.7-28.7-32.5-325.2-32.5c-321.4,0-325.2,0-334.8,44c-3.8,23-109,744.1-229.6,1601.1c-122.4,857-227.6,1587.7-233.4,1624.1c-15.3,91.8-84.2,155-164.5,155c-67,0-135.8-49.7-154.9-110.9c-5.7-19.1,91.8-755.6,218.1-1639.4s229.6-1622.2,229.6-1641.3c0-32.5-9.6-34.4-70.8-24.9c-227.6,40.2-396,154.9-482.1,329c-36.3,70.8-151.1,610.2-464.8,2178.8L430.9,151l40.2,153c118.6,462.9,453.4,1117.2,824.5,1610.7c174.1,231.5,560.5,633.2,790,818.7c443.8,359.6,1008.1,652.3,1530.4,793.9c176,45.9,239.1,99.5,239.1,198.9c0,70.8-57.4,135.8-133.9,153C3692.5,3885,3585.4,3862.1,3459.1,3823.8z"/><path d="M5873.3,2848.2c-28.7-26.8-47.8-68.9-47.8-99.5c0-28.7,40.2-176,91.8-327.1c95.6-296.5,124.3-334.8,235.3-334.8c76.5,0,151.1,72.7,151.1,147.3c0,32.5-40.2,177.9-88,321.4c-65,197-99.5,273.5-135.8,302.2C6012.9,2909.4,5930.6,2907.5,5873.3,2848.2z"/><path d="M3568.2,2645.4c-292.7-99.5-363.5-145.4-363.5-239.1c0-61.2,97.6-160.7,156.9-160.7c45.9,0,512.7,151.1,583.4,187.5c109,59.3,93.7,233.4-24.9,283.1c-36.3,15.3-67,26.8-68.9,24.9C3847.5,2741.1,3721.2,2697.1,3568.2,2645.4z"/><path d="M4727.4,2362.3c-47.8-53.6-223.8-593-210.4-646.6c15.3-61.2,95.6-120.5,162.6-120.5c97.6,0,141.6,67,235.3,353.9c47.8,147.3,88,286.9,88,311.8c0,24.9-21,65-47.8,89.9C4897.7,2410.1,4777.1,2415.9,4727.4,2362.3z"/><path d="M2315.2,2222.7c-61.2-34.4-84.2-76.5-86.1-147.3c0-59.3,23-89.9,206.6-273.6c189.4-189.4,212.3-206.6,277.4-206.6c93.7,0,166.4,68.9,166.4,156.9c0,53.6-28.7,89.9-216.2,277.4C2439.5,2253.3,2403.2,2272.4,2315.2,2222.7z"/><path d="M7462.9,2151.9c-176-61.2-279.3-107.1-302.2-135.8c-67-82.2-26.8-210.4,76.5-250.6c38.3-15.3,103.3,0,338.6,78.4c170.3,57.4,306.1,112.9,327.1,135.8c53.6,59.3,45.9,166.4-19.1,220c-28.7,24.9-74.6,45.9-103.3,44C7751.8,2243.7,7608.3,2201.6,7462.9,2151.9z"/></g></g>
</svg>